<?xml version="1.0" standalone="no"?>
<!DOCTYPE svg PUBLIC "-//W3C//DTD SVG 20010904//EN"
 "http://www.w3.org/TR/2001/REC-SVG-20010904/DTD/svg10.dtd">
<svg version="1.0" xmlns="http://www.w3.org/2000/svg"
 width="800.000000pt" height="800.000000pt" viewBox="0 0 800.000000 800.000000"
 preserveAspectRatio="xMidYMid meet">

<g transform="translate(0.000000,800.000000) scale(0.100000,-0.100000)"
fill="#000000" stroke="none">
<path d="M3907 7664 c-1 -1 -51 -5 -112 -8 -60 -4 -121 -9 -135 -11 -14 -1
-50 -6 -80 -10 -46 -5 -306 -55 -375 -71 -11 -3 -30 -7 -42 -10 -91 -19 -366
-113 -518 -177 -107 -45 -365 -180 -467 -245 -338 -212 -575 -415 -863 -743
-46 -52 -176 -225 -233 -310 -127 -190 -267 -453 -341 -639 -19 -47 -40 -98
-47 -115 -56 -133 -158 -527 -178 -690 -3 -22 -10 -76 -16 -120 -33 -247 -34
-636 0 -873 5 -37 11 -87 14 -112 3 -25 8 -56 11 -70 3 -14 8 -38 11 -55 87
-487 315 -1012 619 -1430 329 -452 785 -846 1255 -1082 30 -16 57 -31 58 -35
2 -5 9 -8 16 -8 7 0 60 -22 117 -48 57 -27 142 -63 189 -80 47 -17 94 -34 105
-38 41 -15 197 -62 265 -80 73 -20 346 -75 390 -79 52 -5 141 -15 175 -21 63
-9 514 -12 605 -4 105 10 192 19 230 25 14 2 45 6 70 10 61 9 186 34 234 46
22 6 49 12 60 13 12 2 48 11 81 20 813 233 1490 705 1969 1371 47 66 91 125
96 132 6 7 10 14 10 16 0 2 28 50 63 108 34 57 85 149 112 204 28 55 53 102
58 103 4 2 7 9 7 16 0 7 11 36 25 64 14 29 25 55 25 58 0 3 7 20 15 37 14 31
95 251 99 272 1 6 10 35 19 65 22 75 56 209 62 242 3 15 14 72 24 125 11 54
22 123 26 153 3 30 9 69 11 85 12 72 17 186 17 425 0 249 -3 305 -24 460 -16
114 -19 133 -66 360 -3 14 -19 72 -35 130 -17 58 -32 112 -33 120 -3 14 -50
143 -93 255 -54 141 -158 350 -250 500 -30 50 -60 100 -67 112 -15 29 -197
279 -231 318 -14 17 -48 57 -77 90 -188 220 -504 495 -747 650 -41 26 -86 55
-100 64 -14 8 -34 21 -45 27 -406 225 -711 340 -1120 422 -173 35 -227 43
-420 58 -76 6 -422 12 -428 8z"/>
</g>
</svg>
